# xmcd CD database file
#
# Track frame offsets:
#	150
#	14521
#	27585
#	45824
#	60404
#	71930
#	86106
#	102847
#	117916
#	130325
#
# Disc length: 1930 seconds
#
# Revision: 0
# Processed by: cddbd v1.4PL0 Copyright (c) Steve Scherf et al.
# Submitted via: Feurio! 1.65.4ß - http://www.feurio.com
#
DISCID=8507880a
DTITLE=Johnny Cash - Gone Girl
DYEAR=1900
DGENRE=Country
TTITLE0=Gone Girl
TTITLE1=I Will Rock And Roll With You
TTITLE2=The Diplomat
TTITLE3=No Expectations
TTITLE4=It Comes And Goes
TTITLE5=It'll Be Her
TTITLE6=The Gambler
TTITLE7=Cajun Born
TTITLE8=You And Me (with June Carter)
TTITLE9=A Song For The Life
EXTD=(c)1978 Columbia Records\r\n
EXTT0=
EXTT1=
EXTT2=
EXTT3=
EXTT4=
EXTT5=
EXTT6=
EXTT7=
EXTT8=
EXTT9=
PLAYORDER=
